<svg width="243" height="51" viewBox="0 0 243 51" fill="none" xmlns="http://www.w3.org/2000/svg">
<g id="logo-ycombinator.svg" clip-path="url(#clip0_1_962)">
<g id="Group">
<path id="Vector" d="M50.3541 0.34375H0.210663V50.4872H50.3541V0.34375Z" fill="white"/>
<path id="Vector_2" d="M23.6109 28.7589L14.9194 12.5459H18.9309L23.9452 22.7417C23.9452 22.9089 24.1124 23.076 24.2795 23.2431C24.4467 23.4103 24.4467 23.5774 24.6138 23.9117L24.7809 24.0789V24.2461C24.9481 24.5804 24.9481 24.7475 25.1152 25.0818C25.2824 25.2489 25.2824 25.5832 25.4495 25.7504C25.6167 25.2489 25.9509 24.9147 26.1181 24.2461C26.2852 23.7446 26.6195 23.2431 26.9538 22.7417L31.9681 12.5459H35.6453L26.9538 28.9261V39.2891H23.6109V28.7589Z" fill="black"/>
<path id="Vector_3" d="M73.2529 10.0386C75.7601 10.0386 77.933 10.7071 79.6045 12.0443L77.933 14.0501C76.4287 13.0471 74.9244 12.3786 73.0858 12.3786C70.2444 12.3786 68.0714 13.8829 66.9014 16.7243C66.2329 18.3958 65.8986 20.5687 65.8986 23.4102C65.8986 25.583 66.2329 27.4216 66.7343 28.7588C68.0714 31.9345 70.2444 33.4389 73.5872 33.4389C75.4258 33.4389 77.0973 32.9374 78.6015 31.7674L80.273 33.9403C78.1001 35.2774 75.7601 35.946 73.2529 35.946C70.2444 35.946 67.7372 34.776 65.7314 32.2688C63.7257 29.9288 62.89 26.753 62.89 22.9088C62.89 19.0644 63.8928 16.0558 65.8986 13.5486C67.7372 11.3757 70.2444 10.0386 73.2529 10.0386Z" fill="white"/>
<path id="Vector_4" d="M82.7803 26.5855C82.7803 23.577 83.4488 21.2369 84.9531 19.5655C86.4575 17.8941 88.2964 16.8911 90.636 16.8911C93.3106 16.8911 95.4832 17.8941 96.9876 20.0669C98.1578 21.7383 98.659 24.0784 98.659 26.9198C98.659 30.2627 97.6558 32.9371 95.8173 34.6085C94.48 35.7785 92.8086 36.447 90.8031 36.447C88.2964 36.447 86.4575 35.6113 84.9531 33.7728C83.4488 32.1013 82.7803 29.5941 82.7803 26.5855ZM94.48 21.7383C93.6447 20.234 92.4745 19.3983 90.636 19.3983C88.7975 19.3983 87.6273 20.0669 86.792 21.404C86.1232 22.4069 85.956 24.0784 85.956 26.2512C85.956 29.0927 86.2903 31.0984 87.1261 32.2684C87.9614 33.4385 89.1317 34.1071 90.8031 34.1071C92.8086 34.1071 94.1459 33.1042 94.815 31.2656C95.1491 30.2627 95.3162 28.9256 95.3162 27.2541C95.4832 24.747 95.1491 22.9084 94.48 21.7383Z" fill="white"/>
<path id="Vector_5" d="M104.007 22.0726C104.007 20.234 103.84 18.7298 103.339 17.5597L106.181 16.8911C106.682 17.7268 106.849 18.7298 106.849 19.5655V19.7326C107.517 19.064 108.186 18.3955 109.19 17.8941C110.359 17.2254 111.362 16.8911 112.364 16.8911C113.869 16.8911 115.206 17.5597 116.042 18.7298C116.209 19.064 116.543 19.5655 116.71 19.8998C118.716 17.8941 120.555 16.8911 122.561 16.8911C123.898 16.8911 125.068 17.3925 125.904 18.2283C126.739 19.2312 127.241 20.4012 127.241 21.7383V35.6113H124.232V21.9055C124.232 20.0669 123.396 19.2312 121.892 19.2312C121.057 19.2312 120.053 19.5655 119.218 20.234C118.884 20.5683 118.215 21.0697 117.38 21.7383L117.045 22.0726V35.6113H113.869V22.574C113.869 21.404 113.702 20.5683 113.368 20.234C112.866 19.7326 112.364 19.5655 111.529 19.5655C110.192 19.5655 108.688 20.4012 106.849 22.0726V35.7785H104.007V22.0726Z" fill="white"/>
<path id="Vector_6" d="M132.422 9.36922L135.431 8.70068C135.765 10.0379 135.932 11.5422 135.932 13.3807V17.5593C135.932 18.5622 135.932 19.2308 135.932 19.5651C137.604 17.8936 139.442 17.0579 141.281 17.0579C143.454 17.0579 145.293 17.8936 146.463 19.5651C147.799 21.2366 148.468 23.5765 148.468 26.418C148.468 29.4267 147.799 31.7667 146.463 33.6052C145.125 35.4439 143.287 36.2796 141.114 36.2796C140.111 36.2796 139.275 36.1124 138.272 35.611C137.27 35.1096 136.6 34.6082 136.099 33.9395C135.932 34.7753 135.765 35.4439 135.598 35.9453H132.756C133.091 35.1096 133.258 33.6052 133.258 31.2652V13.715C133.091 11.7093 132.923 10.205 132.422 9.36922ZM137.27 20.7351C136.768 21.0694 136.266 21.5708 135.932 22.0723V31.5995C137.102 33.1038 138.607 33.7724 140.445 33.7724C141.95 33.7724 143.119 33.2709 143.788 32.1009C144.623 30.7638 145.125 28.9252 145.125 26.2509C145.125 23.9108 144.79 22.2394 143.955 21.2366C143.287 20.2337 142.117 19.7323 140.445 19.7323C139.442 19.5651 138.272 19.8994 137.27 20.7351Z" fill="white"/>
<path id="Vector_7" d="M152.813 11.7097C152.813 11.0411 152.981 10.5397 153.483 10.0382C153.984 9.53677 154.485 9.36963 155.154 9.36963C155.822 9.36963 156.324 9.53677 156.825 10.0382C157.327 10.5397 157.494 11.0411 157.494 11.7097C157.494 12.3783 157.327 12.8797 156.825 13.3811C156.324 13.8825 155.822 14.0497 155.154 14.0497C154.485 14.0497 153.984 13.8825 153.483 13.3811C152.981 12.8797 152.813 12.3783 152.813 11.7097ZM153.483 35.7785V17.3926L156.491 16.8912V35.7785H153.483Z" fill="white"/>
<path id="Vector_8" d="M163.01 22.0726C163.01 20.7355 163.01 19.8998 162.843 19.5655C162.843 19.064 162.509 18.5626 162.174 17.7268L165.015 16.8911C165.517 17.8941 165.684 18.7298 165.684 19.7326C167.523 17.8941 169.528 16.8911 171.534 16.8911C172.537 16.8911 173.372 17.0583 174.209 17.5597C175.044 18.0612 175.713 18.7298 176.047 19.5655C176.381 20.234 176.548 20.9026 176.548 21.7383V35.7785H173.707V23.2427C173.707 21.7383 173.54 20.7355 173.038 20.234C172.537 19.7326 171.868 19.3983 171.033 19.3983C170.364 19.3983 169.361 19.7326 168.358 20.234C167.356 20.7355 166.52 21.404 165.852 22.0726V35.7785H163.01V22.0726Z" fill="white"/>
<path id="Vector_9" d="M183.234 21.404L181.73 19.3983C184.237 17.7268 186.744 16.8911 189.418 16.8911C192.093 16.8911 193.764 17.8941 194.6 19.7326C194.935 20.4012 194.935 21.404 194.935 22.9084V23.9112L194.767 29.9284C194.767 30.0956 194.767 30.4299 194.767 30.7641C194.767 31.767 194.767 32.4356 194.935 32.9371C195.102 33.6056 195.603 34.1071 196.271 34.4413L194.767 36.447C193.43 35.9456 192.594 35.1099 192.26 33.7728C190.589 35.4442 188.75 36.2799 186.912 36.2799C185.072 36.2799 183.569 35.7785 182.399 34.7756C181.395 33.9399 180.894 32.6028 180.894 30.9313C180.894 28.7584 181.73 27.2541 183.401 26.0841C185.072 24.9141 187.58 24.4127 190.589 24.4127C191.09 24.4127 191.424 24.4127 191.926 24.4127V23.0755C191.926 21.5712 191.759 20.5683 191.257 20.234C190.589 19.5655 189.92 19.2312 188.75 19.2312C187.747 19.2312 186.577 19.5655 185.24 20.0669C184.738 20.4012 184.07 20.9026 183.234 21.404ZM192.093 31.2656L192.26 26.4184C191.424 26.4184 190.923 26.4184 190.756 26.4184C188.081 26.4184 186.41 26.9198 185.407 27.9227C184.738 28.5913 184.404 29.5941 184.404 30.9313C184.404 33.1042 185.407 34.2742 187.58 34.2742C189.586 34.1071 191.09 33.1042 192.093 31.2656Z" fill="white"/>
<path id="Vector_10" d="M204.461 17.3926H209.141L208.306 19.7326H204.461V31.5999C204.461 32.6027 204.629 33.2713 204.963 33.7727C205.297 34.107 205.966 34.4414 206.802 34.4414C207.47 34.4414 208.139 34.2742 208.64 34.107L208.974 35.9457C207.972 36.4471 206.969 36.6142 205.799 36.6142C202.958 36.6142 201.62 35.2771 201.62 32.4356V19.7326H199.113V17.3926H201.453V17.0583C201.453 16.724 201.62 15.3869 201.787 13.2139V12.7125L204.796 12.0439C204.461 14.0496 204.461 15.8883 204.461 17.3926Z" fill="white"/>
<path id="Vector_11" d="M212.15 26.5855C212.15 23.577 212.819 21.2369 214.324 19.5655C215.66 17.8941 217.666 16.8911 220.006 16.8911C222.681 16.8911 224.853 17.8941 226.358 20.0669C227.528 21.7383 228.029 24.0784 228.029 26.9198C228.029 30.2627 227.026 32.9371 225.187 34.6085C223.85 35.7785 222.179 36.447 220.173 36.447C217.666 36.447 215.828 35.6113 214.324 33.7728C212.986 32.1013 212.15 29.5941 212.15 26.5855ZM224.018 21.7383C223.182 20.234 222.012 19.3983 220.173 19.3983C218.335 19.3983 217.164 20.0669 216.329 21.404C215.66 22.4069 215.493 24.0784 215.493 26.2512C215.493 29.0927 215.827 31.0984 216.663 32.2684C217.499 33.4385 218.669 34.1071 220.34 34.1071C222.347 34.1071 223.683 33.1042 224.352 31.2656C224.686 30.2627 224.853 28.9256 224.853 27.2541C224.853 24.747 224.519 22.9084 224.018 21.7383Z" fill="white"/>
<path id="Vector_12" d="M233.544 21.7383C233.544 20.0669 233.377 18.7298 232.876 17.7268L235.718 16.8911C236.219 17.8941 236.386 18.7298 236.386 19.7326V20.0669C237.89 18.0612 239.562 17.0583 241.567 17.0583C241.902 17.0583 242.236 17.0583 242.571 17.2254L241.4 20.4012C241.066 20.234 240.732 20.234 240.565 20.234C239.896 20.234 239.061 20.4012 238.392 20.9026C237.723 21.404 237.055 21.9055 236.72 22.5741C236.553 23.0755 236.386 23.7441 236.386 24.5798V36.1128H233.544V21.7383Z" fill="white"/>
</g>
</g>
<defs>
<clipPath id="clip0_1_962">
<rect width="242.36" height="50.2031" fill="white" transform="translate(0.210663 0.34375)"/>
</clipPath>
</defs>
</svg>
