<svg width="243" height="45" viewBox="0 0 243 45" fill="none" xmlns="http://www.w3.org/2000/svg">
<g id="logo-coinbase.svg" clip-path="url(#clip0_1_977)">
<path id="Vector" d="M49.9062 12.627C41.1721 12.627 34.3475 19.2572 34.3475 28.1332C34.3475 37.0092 40.9996 43.5827 49.9062 43.5827C58.8127 43.5827 65.5805 36.8957 65.5805 28.0764C65.5805 19.314 58.9284 12.627 49.9062 12.627ZM49.9628 37.1838C44.9891 37.1838 41.3445 33.3208 41.3445 28.1332C41.3445 22.8866 44.9301 19.0259 49.9039 19.0259C54.9366 19.0259 58.5792 22.9455 58.5792 28.1332C58.5792 33.3208 54.9366 37.1838 49.9628 37.1838ZM67.4878 19.3707H71.8266V43.0065H78.7666V13.2031H67.4878V19.3707ZM16.8815 19.0259C20.5261 19.0259 23.4179 21.2738 24.5156 24.6173H31.8617C30.5304 17.4698 24.6314 12.627 16.9405 12.627C8.20635 12.627 1.38187 19.2572 1.38187 28.1332C1.38187 37.0092 8.03393 43.5827 16.9405 43.5827C24.459 43.5827 30.4737 38.7398 31.805 31.5334H24.5179C23.4769 34.8769 20.5852 37.1838 16.9405 37.1838C11.9078 37.1838 8.38094 33.3208 8.38094 28.1332C8.37876 22.8888 11.8489 19.0259 16.8815 19.0259ZM199.355 25.2524L194.266 24.5038C191.837 24.159 190.102 23.3515 190.102 21.4484C190.102 19.3729 192.358 18.3362 195.423 18.3362C198.777 18.3362 200.918 19.7766 201.381 22.1402H208.089C207.336 16.1451 202.71 12.6292 195.597 12.6292C188.251 12.6292 183.393 16.3764 183.393 21.6797C183.393 26.7517 186.575 29.6936 192.993 30.6146L198.083 31.3632C200.571 31.708 201.959 32.6901 201.959 34.5343C201.959 36.8979 199.53 37.8778 196.175 37.8778C192.068 37.8778 189.755 36.206 189.408 33.67H182.583C183.221 39.4928 187.788 43.5848 196.117 43.5848C203.694 43.5848 208.724 40.1257 208.724 34.1873C208.724 28.8839 205.08 26.1166 199.355 25.2524ZM75.2967 0.924795C72.7519 0.924795 70.8422 2.76895 70.8422 5.30494C70.8422 7.84093 72.7498 9.68509 75.2967 9.68509C77.8414 9.68509 79.751 7.84093 79.751 5.30494C79.7488 2.76895 77.8414 0.924795 75.2967 0.924795ZM177.147 23.406C177.147 16.9504 173.214 12.627 164.886 12.627C157.02 12.627 152.625 16.6056 151.756 22.7164H158.64C158.987 20.3528 160.837 18.393 164.77 18.393C168.299 18.393 170.034 19.9491 170.034 21.8521C170.034 24.3314 166.852 24.9643 162.92 25.368C157.599 25.9442 151.006 27.7884 151.006 34.7067C151.006 40.0689 154.997 43.5259 161.359 43.5259C166.333 43.5259 169.456 41.4504 171.019 38.1637C171.25 41.1034 173.448 43.0065 176.514 43.0065H180.562V36.8389H177.149V23.406H177.147ZM170.32 30.9005C170.32 34.8791 166.85 37.8188 162.627 37.8188C160.023 37.8188 157.826 36.7233 157.826 34.4186C157.826 31.4789 161.355 30.6714 164.593 30.3265C167.716 30.0385 169.452 29.3466 170.32 28.0197V30.9005ZM133.478 12.627C129.602 12.627 126.364 14.242 124.05 16.9504V0.636719H117.11V43.0087H123.935V39.089C126.248 41.9131 129.546 43.5848 133.478 43.5848C141.807 43.5848 148.112 37.0135 148.112 28.1354C148.112 19.2572 141.693 12.627 133.478 12.627ZM132.437 37.1838C127.464 37.1838 123.819 33.3208 123.819 28.1332C123.819 22.9455 127.52 19.0259 132.494 19.0259C137.527 19.0259 141.054 22.8888 141.054 28.1332C141.056 33.323 137.411 37.1838 132.437 37.1838ZM100.512 12.627C96.0014 12.627 93.0508 14.4711 91.3158 17.0661V13.2031H84.4323V43.0065H91.3725V26.8084C91.3725 22.2537 94.2642 19.0259 98.544 19.0259C102.536 19.0259 105.022 21.85 105.022 25.9442V43.0087H111.962V25.427C111.964 17.9303 108.09 12.627 100.512 12.627ZM241.806 27.1533C241.806 18.6221 235.56 12.627 227.173 12.627C218.266 12.627 211.73 19.314 211.73 28.1332C211.73 37.4151 218.729 43.5827 227.288 43.5827C234.519 43.5827 240.186 39.316 241.631 33.2641H234.401C233.36 35.9158 230.815 37.4151 227.402 37.4151C222.947 37.4151 219.593 34.6478 218.842 29.8049H241.804V27.1533H241.806ZM219.25 24.8486C220.35 20.6976 223.473 18.6811 227.059 18.6811C230.992 18.6811 233.999 20.929 234.693 24.8486H219.25Z" fill="white"/>
</g>
<defs>
<clipPath id="clip0_1_977">
<rect width="242" height="44" fill="white" transform="translate(0.59375 0.4375)"/>
</clipPath>
</defs>
</svg>
