<svg width="720" height="247" viewBox="0 0 720 247" fill="none" xmlns="http://www.w3.org/2000/svg">
<g clip-path="url(#clip0_1_988)">
<path d="M656.5 123.702C656.5 183.189 608.27 231.418 548.783 231.418C481.436 231.418 414.128 177.58 360.25 123.702C306.372 69.8234 239.064 15.9849 171.716 15.9849C112.23 15.9849 64 64.2144 64 123.702C64 183.189 112.23 231.418 171.716 231.418C239.064 231.418 306.372 177.58 360.25 123.702C414.128 69.8234 481.436 15.9849 548.783 15.9849C608.27 15.9849 656.5 64.2144 656.5 123.702Z" stroke="url(#paint0_linear_1_988)" stroke-miterlimit="10" stroke-linecap="square"/>
<g opacity="0.6">
<path d="M88.612 102.493H93.89C94.774 102.493 95.606 102.597 96.386 102.805C97.1833 102.995 97.8767 103.316 98.466 103.767C99.0553 104.2 99.5233 104.763 99.87 105.457C100.217 106.133 100.39 106.956 100.39 107.927V108.031C100.39 109.019 100.217 109.859 99.87 110.553C99.5233 111.246 99.0553 111.818 98.466 112.269C97.8767 112.702 97.1833 113.023 96.386 113.231C95.606 113.421 94.774 113.517 93.89 113.517H90.874V121.083H88.612V102.493ZM94.046 111.723C95.3807 111.723 96.3947 111.411 97.088 110.787C97.7813 110.145 98.128 109.227 98.128 108.031V107.927C98.128 106.609 97.764 105.682 97.036 105.145C96.308 104.59 95.3113 104.313 94.046 104.313H90.874V111.723H94.046Z" fill="white"/>
<path d="M107.147 121.317C106.523 121.317 105.934 121.239 105.379 121.083C104.825 120.927 104.339 120.684 103.923 120.355C103.524 120.026 103.204 119.61 102.961 119.107C102.736 118.604 102.623 118.006 102.623 117.313C102.623 116.533 102.814 115.874 103.195 115.337C103.577 114.8 104.079 114.366 104.703 114.037C105.345 113.708 106.072 113.474 106.887 113.335C107.719 113.179 108.568 113.101 109.435 113.101H111.385V112.113C111.385 111.021 111.16 110.241 110.709 109.773C110.259 109.288 109.513 109.045 108.473 109.045C106.601 109.045 105.561 109.86 105.353 111.489H103.195C103.265 110.709 103.455 110.05 103.767 109.513C104.097 108.976 104.504 108.542 104.989 108.213C105.492 107.866 106.046 107.624 106.653 107.485C107.277 107.329 107.919 107.251 108.577 107.251C109.219 107.251 109.842 107.329 110.449 107.485C111.056 107.624 111.584 107.884 112.035 108.265C112.486 108.629 112.85 109.123 113.127 109.747C113.405 110.371 113.543 111.16 113.543 112.113V121.083H111.385V119.367C110.883 120.008 110.302 120.494 109.643 120.823C108.984 121.152 108.153 121.317 107.147 121.317ZM107.355 119.601C107.927 119.601 108.456 119.532 108.941 119.393C109.444 119.237 109.868 119.02 110.215 118.743C110.579 118.466 110.865 118.128 111.073 117.729C111.281 117.313 111.385 116.845 111.385 116.325V114.635H109.513C108.837 114.635 108.205 114.687 107.615 114.791C107.043 114.878 106.541 115.025 106.107 115.233C105.691 115.441 105.362 115.718 105.119 116.065C104.894 116.394 104.781 116.81 104.781 117.313C104.781 118.024 104.972 118.587 105.353 119.003C105.734 119.402 106.402 119.601 107.355 119.601Z" fill="white"/>
<path d="M122.299 121.317C120.67 121.317 119.387 120.936 118.451 120.173C117.532 119.393 117.038 118.301 116.969 116.897H119.075C119.162 117.712 119.439 118.353 119.907 118.821C120.392 119.289 121.181 119.523 122.273 119.523C123.313 119.523 124.067 119.35 124.535 119.003C125.003 118.639 125.237 118.093 125.237 117.365C125.237 116.654 124.968 116.143 124.431 115.831C123.911 115.519 123.122 115.268 122.065 115.077C121.181 114.921 120.436 114.739 119.829 114.531C119.222 114.306 118.737 114.037 118.373 113.725C118.009 113.413 117.74 113.04 117.567 112.607C117.411 112.174 117.333 111.662 117.333 111.073C117.333 110.449 117.472 109.903 117.749 109.435C118.026 108.95 118.382 108.551 118.815 108.239C119.266 107.91 119.76 107.667 120.297 107.511C120.852 107.338 121.398 107.251 121.935 107.251C122.542 107.251 123.122 107.32 123.677 107.459C124.232 107.58 124.726 107.797 125.159 108.109C125.61 108.421 125.982 108.828 126.277 109.331C126.572 109.834 126.762 110.449 126.849 111.177H124.769C124.613 110.432 124.31 109.894 123.859 109.565C123.426 109.218 122.776 109.045 121.909 109.045C121.129 109.045 120.505 109.227 120.037 109.591C119.569 109.938 119.335 110.406 119.335 110.995C119.335 111.307 119.378 111.576 119.465 111.801C119.569 112.009 119.742 112.2 119.985 112.373C120.228 112.529 120.548 112.676 120.947 112.815C121.363 112.936 121.883 113.049 122.507 113.153C123.2 113.292 123.842 113.448 124.431 113.621C125.02 113.777 125.523 114.002 125.939 114.297C126.372 114.574 126.702 114.947 126.927 115.415C127.17 115.866 127.291 116.455 127.291 117.183C127.291 118.431 126.875 119.436 126.043 120.199C125.211 120.944 123.963 121.317 122.299 121.317Z" fill="white"/>
<path d="M135.096 121.317C133.466 121.317 132.184 120.936 131.248 120.173C130.329 119.393 129.835 118.301 129.766 116.897H131.872C131.958 117.712 132.236 118.353 132.704 118.821C133.189 119.289 133.978 119.523 135.07 119.523C136.11 119.523 136.864 119.35 137.332 119.003C137.8 118.639 138.034 118.093 138.034 117.365C138.034 116.654 137.765 116.143 137.228 115.831C136.708 115.519 135.919 115.268 134.862 115.077C133.978 114.921 133.232 114.739 132.626 114.531C132.019 114.306 131.534 114.037 131.17 113.725C130.806 113.413 130.537 113.04 130.364 112.607C130.208 112.174 130.13 111.662 130.13 111.073C130.13 110.449 130.268 109.903 130.546 109.435C130.823 108.95 131.178 108.551 131.612 108.239C132.062 107.91 132.556 107.667 133.094 107.511C133.648 107.338 134.194 107.251 134.732 107.251C135.338 107.251 135.919 107.32 136.474 107.459C137.028 107.58 137.522 107.797 137.956 108.109C138.406 108.421 138.779 108.828 139.074 109.331C139.368 109.834 139.559 110.449 139.646 111.177H137.566C137.41 110.432 137.106 109.894 136.656 109.565C136.222 109.218 135.572 109.045 134.706 109.045C133.926 109.045 133.302 109.227 132.834 109.591C132.366 109.938 132.132 110.406 132.132 110.995C132.132 111.307 132.175 111.576 132.262 111.801C132.366 112.009 132.539 112.2 132.782 112.373C133.024 112.529 133.345 112.676 133.744 112.815C134.16 112.936 134.68 113.049 135.304 113.153C135.997 113.292 136.638 113.448 137.228 113.621C137.817 113.777 138.32 114.002 138.736 114.297C139.169 114.574 139.498 114.947 139.724 115.415C139.966 115.866 140.088 116.455 140.088 117.183C140.088 118.431 139.672 119.436 138.84 120.199C138.008 120.944 136.76 121.317 135.096 121.317Z" fill="white"/>
<path d="M143.733 107.485H145.891V121.083H143.733V107.485ZM144.773 104.651C144.374 104.651 144.036 104.512 143.759 104.235C143.481 103.958 143.343 103.62 143.343 103.221C143.343 102.822 143.481 102.484 143.759 102.207C144.036 101.93 144.374 101.791 144.773 101.791C145.171 101.791 145.509 101.93 145.787 102.207C146.064 102.484 146.203 102.822 146.203 103.221C146.203 103.62 146.064 103.958 145.787 104.235C145.509 104.512 145.171 104.651 144.773 104.651Z" fill="white"/>
<path d="M156.28 119.523C156.956 119.523 157.572 119.402 158.126 119.159C158.681 118.916 159.149 118.57 159.53 118.119C159.912 117.668 160.206 117.131 160.414 116.507C160.622 115.866 160.726 115.164 160.726 114.401V114.219C160.726 113.439 160.622 112.728 160.414 112.087C160.206 111.446 159.903 110.9 159.504 110.449C159.123 109.998 158.655 109.652 158.1 109.409C157.563 109.166 156.956 109.045 156.28 109.045C155.604 109.045 154.989 109.166 154.434 109.409C153.88 109.652 153.412 109.998 153.03 110.449C152.649 110.9 152.354 111.446 152.146 112.087C151.938 112.711 151.834 113.413 151.834 114.193V114.401C151.834 115.961 152.224 117.209 153.004 118.145C153.802 119.064 154.894 119.523 156.28 119.523ZM156.254 121.317C155.284 121.317 154.391 121.144 153.576 120.797C152.762 120.45 152.06 119.974 151.47 119.367C150.881 118.743 150.422 118.006 150.092 117.157C149.763 116.308 149.598 115.389 149.598 114.401V114.193C149.598 113.17 149.763 112.234 150.092 111.385C150.439 110.536 150.907 109.808 151.496 109.201C152.086 108.577 152.788 108.1 153.602 107.771C154.417 107.424 155.31 107.251 156.28 107.251C157.234 107.251 158.118 107.424 158.932 107.771C159.764 108.1 160.475 108.568 161.064 109.175C161.654 109.782 162.113 110.51 162.442 111.359C162.789 112.208 162.962 113.144 162.962 114.167V114.375C162.962 115.398 162.789 116.342 162.442 117.209C162.113 118.058 161.645 118.786 161.038 119.393C160.449 120 159.747 120.476 158.932 120.823C158.118 121.152 157.225 121.317 156.254 121.317Z" fill="white"/>
<path d="M166.634 107.485H168.792V109.643C169.104 109.002 169.624 108.447 170.352 107.979C171.097 107.494 172.033 107.251 173.16 107.251C173.853 107.251 174.494 107.355 175.084 107.563C175.673 107.754 176.176 108.074 176.592 108.525C177.025 108.958 177.354 109.522 177.58 110.215C177.822 110.908 177.944 111.749 177.944 112.737V121.083H175.786V112.581C175.786 111.385 175.526 110.51 175.006 109.955C174.486 109.4 173.68 109.123 172.588 109.123C172.085 109.123 171.6 109.201 171.132 109.357C170.681 109.513 170.282 109.747 169.936 110.059C169.589 110.371 169.312 110.761 169.104 111.229C168.896 111.697 168.792 112.234 168.792 112.841V121.083H166.634V107.485Z" fill="white"/>
<path d="M189.436 107.485H191.594V121.083H189.436V107.485ZM190.476 104.651C190.077 104.651 189.739 104.512 189.462 104.235C189.184 103.958 189.046 103.62 189.046 103.221C189.046 102.822 189.184 102.484 189.462 102.207C189.739 101.93 190.077 101.791 190.476 101.791C190.874 101.791 191.212 101.93 191.49 102.207C191.767 102.484 191.906 102.822 191.906 103.221C191.906 103.62 191.767 103.958 191.49 104.235C191.212 104.512 190.874 104.651 190.476 104.651Z" fill="white"/>
<path d="M196.315 107.485H198.473V109.643C198.785 109.002 199.305 108.447 200.033 107.979C200.779 107.494 201.715 107.251 202.841 107.251C203.535 107.251 204.176 107.355 204.765 107.563C205.355 107.754 205.857 108.074 206.273 108.525C206.707 108.958 207.036 109.522 207.261 110.215C207.504 110.908 207.625 111.749 207.625 112.737V121.083H205.467V112.581C205.467 111.385 205.207 110.51 204.687 109.955C204.167 109.4 203.361 109.123 202.269 109.123C201.767 109.123 201.281 109.201 200.813 109.357C200.363 109.513 199.964 109.747 199.617 110.059C199.271 110.371 198.993 110.761 198.785 111.229C198.577 111.697 198.473 112.234 198.473 112.841V121.083H196.315V107.485Z" fill="white"/>
<path d="M223.199 121.265C221.951 121.265 221.024 120.936 220.417 120.277C219.828 119.618 219.533 118.752 219.533 117.677V109.305H217.583V107.485H219.533V104.391H221.691V107.485H224.863V109.305H221.691V117.469C221.691 118.786 222.255 119.445 223.381 119.445C223.728 119.445 224.031 119.419 224.291 119.367C224.551 119.315 224.803 119.246 225.045 119.159V120.979C224.82 121.066 224.569 121.135 224.291 121.187C224.014 121.239 223.65 121.265 223.199 121.265Z" fill="white"/>
<path d="M228.612 100.985H230.77V109.643C231.082 109.002 231.602 108.447 232.33 107.979C233.076 107.494 234.012 107.251 235.138 107.251C235.832 107.251 236.473 107.355 237.062 107.563C237.652 107.754 238.154 108.074 238.57 108.525C239.004 108.958 239.333 109.522 239.558 110.215C239.801 110.908 239.922 111.749 239.922 112.737V121.083H237.764V112.581C237.764 111.385 237.504 110.51 236.984 109.955C236.464 109.4 235.658 109.123 234.566 109.123C234.064 109.123 233.578 109.201 233.11 109.357C232.66 109.513 232.261 109.747 231.914 110.059C231.568 110.371 231.29 110.761 231.082 111.229C230.874 111.697 230.77 112.234 230.77 112.841V121.083H228.612V100.985Z" fill="white"/>
<path d="M250.045 121.317C249.075 121.317 248.191 121.152 247.393 120.823C246.596 120.494 245.903 120.034 245.313 119.445C244.724 118.838 244.265 118.11 243.935 117.261C243.623 116.412 243.467 115.467 243.467 114.427V114.219C243.467 113.196 243.623 112.26 243.935 111.411C244.247 110.544 244.681 109.808 245.235 109.201C245.807 108.577 246.483 108.1 247.263 107.771C248.043 107.424 248.901 107.251 249.837 107.251C250.617 107.251 251.371 107.381 252.099 107.641C252.845 107.884 253.503 108.274 254.075 108.811C254.647 109.348 255.098 110.05 255.427 110.917C255.774 111.766 255.947 112.798 255.947 114.011V114.713H245.703C245.755 116.273 246.145 117.469 246.873 118.301C247.601 119.116 248.667 119.523 250.071 119.523C252.203 119.523 253.408 118.734 253.685 117.157H255.843C255.601 118.526 254.959 119.566 253.919 120.277C252.879 120.97 251.588 121.317 250.045 121.317ZM253.737 112.971C253.633 111.567 253.235 110.562 252.541 109.955C251.865 109.348 250.964 109.045 249.837 109.045C248.728 109.045 247.818 109.4 247.107 110.111C246.414 110.804 245.972 111.758 245.781 112.971H253.737Z" fill="white"/>
<path d="M266.444 107.485H268.602V109.643C268.914 109.002 269.434 108.447 270.162 107.979C270.908 107.494 271.844 107.251 272.97 107.251C273.664 107.251 274.305 107.355 274.894 107.563C275.484 107.754 275.986 108.074 276.402 108.525C276.836 108.958 277.165 109.522 277.39 110.215C277.633 110.908 277.754 111.749 277.754 112.737V121.083H275.596V112.581C275.596 111.385 275.336 110.51 274.816 109.955C274.296 109.4 273.49 109.123 272.398 109.123C271.896 109.123 271.41 109.201 270.942 109.357C270.492 109.513 270.093 109.747 269.746 110.059C269.4 110.371 269.122 110.761 268.914 111.229C268.706 111.697 268.602 112.234 268.602 112.841V121.083H266.444V107.485Z" fill="white"/>
<path d="M287.877 121.317C286.907 121.317 286.023 121.152 285.225 120.823C284.428 120.494 283.735 120.034 283.145 119.445C282.556 118.838 282.097 118.11 281.767 117.261C281.455 116.412 281.299 115.467 281.299 114.427V114.219C281.299 113.196 281.455 112.26 281.767 111.411C282.079 110.544 282.513 109.808 283.067 109.201C283.639 108.577 284.315 108.1 285.095 107.771C285.875 107.424 286.733 107.251 287.669 107.251C288.449 107.251 289.203 107.381 289.931 107.641C290.677 107.884 291.335 108.274 291.907 108.811C292.479 109.348 292.93 110.05 293.259 110.917C293.606 111.766 293.779 112.798 293.779 114.011V114.713H283.535C283.587 116.273 283.977 117.469 284.705 118.301C285.433 119.116 286.499 119.523 287.903 119.523C290.035 119.523 291.24 118.734 291.517 117.157H293.675C293.433 118.526 292.791 119.566 291.751 120.277C290.711 120.97 289.42 121.317 287.877 121.317ZM291.569 112.971C291.465 111.567 291.067 110.562 290.373 109.955C289.697 109.348 288.796 109.045 287.669 109.045C286.56 109.045 285.65 109.4 284.939 110.111C284.246 110.804 283.804 111.758 283.613 112.971H291.569Z" fill="white"/>
<path d="M295.812 107.485H298.152L301.324 118.431L304.626 107.485H306.499L309.592 118.431L312.79 107.485H315.001L310.762 121.083H308.37L305.536 110.891L302.365 121.083H299.999L295.812 107.485Z" fill="white"/>
<path d="M87 141.485H89.34L92.512 152.431L95.814 141.485H97.686L100.78 152.431L103.978 141.485H106.188L101.95 155.083H99.558L96.724 144.891L93.552 155.083H91.186L87 141.485Z" fill="white"/>
<path d="M112.555 155.317C111.931 155.317 111.342 155.239 110.787 155.083C110.233 154.927 109.747 154.684 109.331 154.355C108.933 154.026 108.612 153.61 108.369 153.107C108.144 152.604 108.031 152.006 108.031 151.313C108.031 150.533 108.222 149.874 108.603 149.337C108.985 148.8 109.487 148.366 110.111 148.037C110.753 147.708 111.481 147.474 112.295 147.335C113.127 147.179 113.977 147.101 114.843 147.101H116.793V146.113C116.793 145.021 116.568 144.241 116.117 143.773C115.667 143.288 114.921 143.045 113.881 143.045C112.009 143.045 110.969 143.86 110.761 145.489H108.603C108.673 144.709 108.863 144.05 109.175 143.513C109.505 142.976 109.912 142.542 110.397 142.213C110.9 141.866 111.455 141.624 112.061 141.485C112.685 141.329 113.327 141.251 113.985 141.251C114.627 141.251 115.251 141.329 115.857 141.485C116.464 141.624 116.993 141.884 117.443 142.265C117.894 142.629 118.258 143.123 118.535 143.747C118.813 144.371 118.951 145.16 118.951 146.113V155.083H116.793V153.367C116.291 154.008 115.71 154.494 115.051 154.823C114.393 155.152 113.561 155.317 112.555 155.317ZM112.763 153.601C113.335 153.601 113.864 153.532 114.349 153.393C114.852 153.237 115.277 153.02 115.623 152.743C115.987 152.466 116.273 152.128 116.481 151.729C116.689 151.313 116.793 150.845 116.793 150.325V148.635H114.921C114.245 148.635 113.613 148.687 113.023 148.791C112.451 148.878 111.949 149.025 111.515 149.233C111.099 149.441 110.77 149.718 110.527 150.065C110.302 150.394 110.189 150.81 110.189 151.313C110.189 152.024 110.38 152.587 110.761 153.003C111.143 153.402 111.81 153.601 112.763 153.601Z" fill="white"/>
<path d="M121.58 141.485H123.92L127.95 152.899L131.928 141.485H134.164L129.276 155.083H126.52L121.58 141.485Z" fill="white"/>
<path d="M142.491 155.317C141.52 155.317 140.636 155.152 139.839 154.823C139.041 154.494 138.348 154.034 137.759 153.445C137.169 152.838 136.71 152.11 136.381 151.261C136.069 150.412 135.913 149.467 135.913 148.427V148.219C135.913 147.196 136.069 146.26 136.381 145.411C136.693 144.544 137.126 143.808 137.681 143.201C138.253 142.577 138.929 142.1 139.709 141.771C140.489 141.424 141.347 141.251 142.283 141.251C143.063 141.251 143.817 141.381 144.545 141.641C145.29 141.884 145.949 142.274 146.521 142.811C147.093 143.348 147.543 144.05 147.873 144.917C148.219 145.766 148.393 146.798 148.393 148.011V148.713H138.149C138.201 150.273 138.591 151.469 139.319 152.301C140.047 153.116 141.113 153.523 142.517 153.523C144.649 153.523 145.853 152.734 146.131 151.157H148.289C148.046 152.526 147.405 153.566 146.365 154.277C145.325 154.97 144.033 155.317 142.491 155.317ZM146.183 146.971C146.079 145.567 145.68 144.562 144.987 143.955C144.311 143.348 143.409 143.045 142.283 143.045C141.173 143.045 140.263 143.4 139.553 144.111C138.859 144.804 138.417 145.758 138.227 146.971H146.183Z" fill="white"/>
<path d="M164.558 153.523C165.234 153.523 165.849 153.402 166.404 153.159C166.958 152.916 167.426 152.57 167.808 152.119C168.189 151.668 168.484 151.131 168.692 150.507C168.9 149.866 169.004 149.164 169.004 148.401V148.219C169.004 147.439 168.9 146.728 168.692 146.087C168.484 145.446 168.18 144.9 167.782 144.449C167.4 143.998 166.932 143.652 166.378 143.409C165.84 143.166 165.234 143.045 164.558 143.045C163.882 143.045 163.266 143.166 162.712 143.409C162.157 143.652 161.689 143.998 161.308 144.449C160.926 144.9 160.632 145.446 160.424 146.087C160.216 146.711 160.112 147.413 160.112 148.193V148.401C160.112 149.961 160.502 151.209 161.282 152.145C162.079 153.064 163.171 153.523 164.558 153.523ZM164.532 155.317C163.561 155.317 162.668 155.144 161.854 154.797C161.039 154.45 160.337 153.974 159.748 153.367C159.158 152.743 158.699 152.006 158.37 151.157C158.04 150.308 157.876 149.389 157.876 148.401V148.193C157.876 147.17 158.04 146.234 158.37 145.385C158.716 144.536 159.184 143.808 159.774 143.201C160.363 142.577 161.065 142.1 161.88 141.771C162.694 141.424 163.587 141.251 164.558 141.251C165.511 141.251 166.395 141.424 167.21 141.771C168.042 142.1 168.752 142.568 169.342 143.175C169.931 143.782 170.39 144.51 170.72 145.359C171.066 146.208 171.24 147.144 171.24 148.167V148.375C171.24 149.398 171.066 150.342 170.72 151.209C170.39 152.058 169.922 152.786 169.316 153.393C168.726 154 168.024 154.476 167.21 154.823C166.395 155.152 165.502 155.317 164.532 155.317Z" fill="white"/>
<path d="M175.379 143.305H173.429V141.485H175.379V139.275C175.379 137.888 175.717 136.814 176.393 136.051C177.069 135.288 178.083 134.907 179.435 134.907C179.782 134.907 180.068 134.933 180.293 134.985C180.518 135.02 180.77 135.08 181.047 135.167V136.987C180.856 136.9 180.622 136.831 180.345 136.779C180.085 136.727 179.808 136.701 179.513 136.701C178.802 136.701 178.291 136.918 177.979 137.351C177.684 137.784 177.537 138.348 177.537 139.041V141.485H180.865V143.305H177.537V155.083H175.379V143.305Z" fill="white"/>
<path d="M196.752 155.317C195.799 155.317 194.915 155.161 194.1 154.849C193.303 154.52 192.601 154.06 191.994 153.471C191.405 152.864 190.937 152.136 190.59 151.287C190.261 150.438 190.096 149.484 190.096 148.427V148.219C190.096 147.179 190.27 146.234 190.616 145.385C190.963 144.518 191.431 143.782 192.02 143.175C192.627 142.568 193.329 142.1 194.126 141.771C194.924 141.424 195.782 141.251 196.7 141.251C197.411 141.251 198.096 141.338 198.754 141.511C199.43 141.684 200.028 141.962 200.548 142.343C201.086 142.707 201.536 143.192 201.9 143.799C202.264 144.406 202.498 145.142 202.602 146.009H200.47C200.297 144.934 199.855 144.172 199.144 143.721C198.451 143.27 197.636 143.045 196.7 143.045C196.076 143.045 195.496 143.166 194.958 143.409C194.438 143.652 193.979 143.998 193.58 144.449C193.199 144.882 192.896 145.42 192.67 146.061C192.445 146.702 192.332 147.422 192.332 148.219V148.427C192.332 150.108 192.74 151.382 193.554 152.249C194.386 153.098 195.461 153.523 196.778 153.523C197.264 153.523 197.723 153.454 198.156 153.315C198.607 153.176 199.006 152.968 199.352 152.691C199.716 152.414 200.011 152.067 200.236 151.651C200.479 151.235 200.626 150.75 200.678 150.195H202.68C202.611 150.923 202.412 151.608 202.082 152.249C201.77 152.873 201.354 153.41 200.834 153.861C200.314 154.312 199.708 154.667 199.014 154.927C198.321 155.187 197.567 155.317 196.752 155.317Z" fill="white"/>
<path d="M206.243 141.485H208.401V143.929C208.609 143.548 208.843 143.201 209.103 142.889C209.38 142.56 209.692 142.282 210.039 142.057C210.386 141.814 210.793 141.624 211.261 141.485C211.729 141.346 212.266 141.268 212.873 141.251V143.279C212.197 143.314 211.582 143.4 211.027 143.539C210.472 143.678 209.996 143.912 209.597 144.241C209.216 144.57 208.921 145.012 208.713 145.567C208.505 146.104 208.401 146.789 208.401 147.621V155.083H206.243V141.485Z" fill="white"/>
<path d="M220.246 153.679L214.916 141.485H217.23L221.39 151.235L225.16 141.485H227.37L219.856 159.815H217.672L220.246 153.679Z" fill="white"/>
<path d="M230.517 141.485H232.675V143.773C232.865 143.444 233.117 143.132 233.429 142.837C233.758 142.525 234.122 142.256 234.521 142.031C234.919 141.788 235.353 141.598 235.821 141.459C236.289 141.32 236.774 141.251 237.277 141.251C238.161 141.251 238.984 141.407 239.747 141.719C240.509 142.031 241.159 142.482 241.697 143.071C242.251 143.66 242.685 144.38 242.997 145.229C243.309 146.078 243.465 147.032 243.465 148.089V148.297C243.465 149.337 243.317 150.29 243.023 151.157C242.728 152.006 242.312 152.743 241.775 153.367C241.237 153.991 240.587 154.476 239.825 154.823C239.062 155.152 238.213 155.317 237.277 155.317C236.15 155.317 235.197 155.074 234.417 154.589C233.654 154.104 233.073 153.523 232.675 152.847V159.815H230.517V141.485ZM237.069 153.523C238.421 153.523 239.452 153.09 240.163 152.223C240.873 151.339 241.229 150.065 241.229 148.401V148.193C241.229 147.344 241.116 146.598 240.891 145.957C240.665 145.298 240.362 144.761 239.981 144.345C239.617 143.912 239.175 143.591 238.655 143.383C238.152 143.158 237.615 143.045 237.043 143.045C236.419 143.045 235.829 143.149 235.275 143.357C234.737 143.565 234.269 143.886 233.871 144.319C233.472 144.735 233.16 145.272 232.935 145.931C232.709 146.572 232.597 147.326 232.597 148.193V148.401C232.597 149.268 232.701 150.022 232.909 150.663C233.134 151.304 233.437 151.842 233.819 152.275C234.217 152.691 234.694 153.003 235.249 153.211C235.803 153.419 236.41 153.523 237.069 153.523Z" fill="white"/>
<path d="M251.256 155.265C250.008 155.265 249.081 154.936 248.474 154.277C247.885 153.618 247.59 152.752 247.59 151.677V143.305H245.64V141.485H247.59V138.391H249.748V141.485H252.92V143.305H249.748V151.469C249.748 152.786 250.311 153.445 251.438 153.445C251.785 153.445 252.088 153.419 252.348 153.367C252.608 153.315 252.859 153.246 253.102 153.159V154.979C252.877 155.066 252.625 155.135 252.348 155.187C252.071 155.239 251.707 155.265 251.256 155.265Z" fill="white"/>
<path d="M262.337 153.523C263.013 153.523 263.628 153.402 264.183 153.159C264.738 152.916 265.206 152.57 265.587 152.119C265.968 151.668 266.263 151.131 266.471 150.507C266.679 149.866 266.783 149.164 266.783 148.401V148.219C266.783 147.439 266.679 146.728 266.471 146.087C266.263 145.446 265.96 144.9 265.561 144.449C265.18 143.998 264.712 143.652 264.157 143.409C263.62 143.166 263.013 143.045 262.337 143.045C261.661 143.045 261.046 143.166 260.491 143.409C259.936 143.652 259.468 143.998 259.087 144.449C258.706 144.9 258.411 145.446 258.203 146.087C257.995 146.711 257.891 147.413 257.891 148.193V148.401C257.891 149.961 258.281 151.209 259.061 152.145C259.858 153.064 260.95 153.523 262.337 153.523ZM262.311 155.317C261.34 155.317 260.448 155.144 259.633 154.797C258.818 154.45 258.116 153.974 257.527 153.367C256.938 152.743 256.478 152.006 256.149 151.157C255.82 150.308 255.655 149.389 255.655 148.401V148.193C255.655 147.17 255.82 146.234 256.149 145.385C256.496 144.536 256.964 143.808 257.553 143.201C258.142 142.577 258.844 142.1 259.659 141.771C260.474 141.424 261.366 141.251 262.337 141.251C263.29 141.251 264.174 141.424 264.989 141.771C265.821 142.1 266.532 142.568 267.121 143.175C267.71 143.782 268.17 144.51 268.499 145.359C268.846 146.208 269.019 147.144 269.019 148.167V148.375C269.019 149.398 268.846 150.342 268.499 151.209C268.17 152.058 267.702 152.786 267.095 153.393C266.506 154 265.804 154.476 264.989 154.823C264.174 155.152 263.282 155.317 262.311 155.317Z" fill="white"/>
</g>
<g opacity="0.6">
<path d="M450.611 102.493H452.873V110.917H462.649V102.493H464.911V121.083H462.649V112.815H452.873V121.083H450.611V102.493Z" fill="white"/>
<path d="M469.804 107.485H471.962V121.083H469.804V107.485ZM470.844 104.651C470.446 104.651 470.108 104.512 469.83 104.235C469.553 103.958 469.414 103.62 469.414 103.221C469.414 102.822 469.553 102.484 469.83 102.207C470.108 101.93 470.446 101.791 470.844 101.791C471.243 101.791 471.581 101.93 471.858 102.207C472.136 102.484 472.274 102.822 472.274 103.221C472.274 103.62 472.136 103.958 471.858 104.235C471.581 104.512 471.243 104.651 470.844 104.651Z" fill="white"/>
<path d="M482.118 126.049C481.113 126.049 480.237 125.936 479.492 125.711C478.764 125.486 478.149 125.182 477.646 124.801C477.161 124.437 476.779 123.995 476.502 123.475C476.225 122.972 476.043 122.435 475.956 121.863H478.166C478.478 123.44 479.787 124.229 482.092 124.229C483.427 124.229 484.484 123.891 485.264 123.215C486.061 122.556 486.46 121.499 486.46 120.043V118.067C486.269 118.396 486.009 118.717 485.68 119.029C485.368 119.341 485.004 119.618 484.588 119.861C484.189 120.086 483.756 120.277 483.288 120.433C482.82 120.572 482.343 120.641 481.858 120.641C480.974 120.641 480.151 120.485 479.388 120.173C478.625 119.844 477.967 119.393 477.412 118.821C476.875 118.249 476.45 117.573 476.138 116.793C475.826 115.996 475.67 115.129 475.67 114.193V114.011C475.67 113.092 475.826 112.226 476.138 111.411C476.45 110.579 476.883 109.86 477.438 109.253C477.993 108.629 478.66 108.144 479.44 107.797C480.22 107.433 481.078 107.251 482.014 107.251C483.158 107.251 484.085 107.494 484.796 107.979C485.507 108.447 486.061 109.01 486.46 109.669V107.485H488.618V120.173C488.618 121.161 488.453 122.019 488.124 122.747C487.795 123.492 487.344 124.108 486.772 124.593C486.2 125.078 485.515 125.442 484.718 125.685C483.938 125.928 483.071 126.049 482.118 126.049ZM482.092 118.847C482.716 118.847 483.297 118.743 483.834 118.535C484.389 118.31 484.865 117.998 485.264 117.599C485.663 117.183 485.975 116.68 486.2 116.091C486.425 115.484 486.538 114.8 486.538 114.037V113.855C486.538 112.33 486.148 111.151 485.368 110.319C484.605 109.47 483.557 109.045 482.222 109.045C481.546 109.045 480.939 109.166 480.402 109.409C479.865 109.652 479.414 109.99 479.05 110.423C478.686 110.839 478.4 111.35 478.192 111.957C478.001 112.546 477.906 113.196 477.906 113.907V114.115C477.906 114.86 478.019 115.528 478.244 116.117C478.469 116.689 478.764 117.183 479.128 117.599C479.509 117.998 479.951 118.31 480.454 118.535C480.974 118.743 481.52 118.847 482.092 118.847Z" fill="white"/>
<path d="M493.289 100.985H495.447V109.643C495.759 109.002 496.279 108.447 497.007 107.979C497.753 107.494 498.689 107.251 499.815 107.251C500.509 107.251 501.15 107.355 501.739 107.563C502.329 107.754 502.831 108.074 503.247 108.525C503.681 108.958 504.01 109.522 504.235 110.215C504.478 110.908 504.599 111.749 504.599 112.737V121.083H502.441V112.581C502.441 111.385 502.181 110.51 501.661 109.955C501.141 109.4 500.335 109.123 499.243 109.123C498.741 109.123 498.255 109.201 497.787 109.357C497.337 109.513 496.938 109.747 496.591 110.059C496.245 110.371 495.967 110.761 495.759 111.229C495.551 111.697 495.447 112.234 495.447 112.841V121.083H493.289V100.985Z" fill="white"/>
<path d="M508.535 112.919H514.099V114.947H508.535V112.919Z" fill="white"/>
<path d="M527.923 118.743C527.732 119.072 527.472 119.393 527.143 119.705C526.813 120.017 526.441 120.294 526.025 120.537C525.626 120.762 525.184 120.944 524.699 121.083C524.231 121.239 523.754 121.317 523.269 121.317C522.385 121.317 521.561 121.17 520.799 120.875C520.053 120.563 519.403 120.121 518.849 119.549C518.311 118.96 517.887 118.249 517.575 117.417C517.28 116.568 517.133 115.614 517.133 114.557V114.349C517.133 113.309 517.289 112.356 517.601 111.489C517.913 110.622 518.346 109.877 518.901 109.253C519.455 108.612 520.123 108.118 520.903 107.771C521.683 107.424 522.541 107.251 523.477 107.251C524.621 107.251 525.548 107.494 526.259 107.979C526.969 108.447 527.524 109.01 527.923 109.669V107.485H530.081V125.815H527.923V118.743ZM523.503 119.523C524.127 119.523 524.716 119.419 525.271 119.211C525.825 119.003 526.302 118.691 526.701 118.275C527.099 117.842 527.411 117.304 527.637 116.663C527.879 116.004 528.001 115.242 528.001 114.375V114.167C528.001 112.416 527.611 111.125 526.831 110.293C526.068 109.461 525.019 109.045 523.685 109.045C522.333 109.045 521.275 109.496 520.513 110.397C519.75 111.298 519.369 112.581 519.369 114.245V114.453C519.369 115.32 519.473 116.074 519.681 116.715C519.906 117.339 520.201 117.859 520.565 118.275C520.946 118.691 521.388 119.003 521.891 119.211C522.393 119.419 522.931 119.523 523.503 119.523Z" fill="white"/>
<path d="M539.354 121.317C538.678 121.317 538.046 121.222 537.456 121.031C536.884 120.84 536.39 120.537 535.974 120.121C535.558 119.688 535.229 119.142 534.986 118.483C534.744 117.824 534.622 117.027 534.622 116.091V107.485H536.78V115.987C536.78 117.183 537.032 118.058 537.534 118.613C538.054 119.168 538.852 119.445 539.926 119.445C540.412 119.445 540.88 119.367 541.33 119.211C541.781 119.055 542.18 118.821 542.526 118.509C542.873 118.197 543.15 117.807 543.358 117.339C543.566 116.871 543.67 116.334 543.67 115.727V107.485H545.828V121.083H543.67V118.925C543.358 119.566 542.83 120.13 542.084 120.615C541.356 121.083 540.446 121.317 539.354 121.317Z" fill="white"/>
<path d="M553.926 121.317C553.302 121.317 552.713 121.239 552.158 121.083C551.603 120.927 551.118 120.684 550.702 120.355C550.303 120.026 549.983 119.61 549.74 119.107C549.515 118.604 549.402 118.006 549.402 117.313C549.402 116.533 549.593 115.874 549.974 115.337C550.355 114.8 550.858 114.366 551.482 114.037C552.123 113.708 552.851 113.474 553.666 113.335C554.498 113.179 555.347 113.101 556.214 113.101H558.164V112.113C558.164 111.021 557.939 110.241 557.488 109.773C557.037 109.288 556.292 109.045 555.252 109.045C553.38 109.045 552.34 109.86 552.132 111.489H549.974C550.043 110.709 550.234 110.05 550.546 109.513C550.875 108.976 551.283 108.542 551.768 108.213C552.271 107.866 552.825 107.624 553.432 107.485C554.056 107.329 554.697 107.251 555.356 107.251C555.997 107.251 556.621 107.329 557.228 107.485C557.835 107.624 558.363 107.884 558.814 108.265C559.265 108.629 559.629 109.123 559.906 109.747C560.183 110.371 560.322 111.16 560.322 112.113V121.083H558.164V119.367C557.661 120.008 557.081 120.494 556.422 120.823C555.763 121.152 554.931 121.317 553.926 121.317ZM554.134 119.601C554.706 119.601 555.235 119.532 555.72 119.393C556.223 119.237 556.647 119.02 556.994 118.743C557.358 118.466 557.644 118.128 557.852 117.729C558.06 117.313 558.164 116.845 558.164 116.325V114.635H556.292C555.616 114.635 554.983 114.687 554.394 114.791C553.822 114.878 553.319 115.025 552.886 115.233C552.47 115.441 552.141 115.718 551.898 116.065C551.673 116.394 551.56 116.81 551.56 117.313C551.56 118.024 551.751 118.587 552.132 119.003C552.513 119.402 553.181 119.601 554.134 119.601Z" fill="white"/>
<path d="M564.918 100.985H567.102V121.083H564.918V100.985Z" fill="white"/>
<path d="M571.875 107.485H574.033V121.083H571.875V107.485ZM572.915 104.651C572.516 104.651 572.178 104.512 571.901 104.235C571.623 103.958 571.485 103.62 571.485 103.221C571.485 102.822 571.623 102.484 571.901 102.207C572.178 101.93 572.516 101.791 572.915 101.791C573.313 101.791 573.651 101.93 573.929 102.207C574.206 102.484 574.345 102.822 574.345 103.221C574.345 103.62 574.206 103.958 573.929 104.235C573.651 104.512 573.313 104.651 572.915 104.651Z" fill="white"/>
<path d="M582.888 121.265C581.64 121.265 580.713 120.936 580.106 120.277C579.517 119.618 579.222 118.752 579.222 117.677V109.305H577.272V107.485H579.222V104.391H581.38V107.485H584.552V109.305H581.38V117.469C581.38 118.786 581.944 119.445 583.07 119.445C583.417 119.445 583.72 119.419 583.98 119.367C584.24 119.315 584.492 119.246 584.734 119.159V120.979C584.509 121.066 584.258 121.135 583.98 121.187C583.703 121.239 583.339 121.265 582.888 121.265Z" fill="white"/>
<path d="M592.097 119.679L586.767 107.485H589.081L593.241 117.235L597.011 107.485H599.221L591.707 125.815H589.523L592.097 119.679Z" fill="white"/>
<path d="M455.577 155.317C454.693 155.317 453.87 155.17 453.107 154.875C452.362 154.563 451.712 154.121 451.157 153.549C450.62 152.96 450.195 152.249 449.883 151.417C449.589 150.568 449.441 149.614 449.441 148.557V148.349C449.441 147.309 449.597 146.356 449.909 145.489C450.221 144.622 450.655 143.877 451.209 143.253C451.764 142.612 452.431 142.118 453.211 141.771C453.991 141.424 454.849 141.251 455.785 141.251C456.929 141.251 457.857 141.494 458.567 141.979C459.278 142.447 459.833 143.01 460.231 143.669V134.985H462.389V155.083H460.231V152.743C460.041 153.072 459.781 153.393 459.451 153.705C459.122 154.017 458.749 154.294 458.333 154.537C457.935 154.762 457.493 154.944 457.007 155.083C456.539 155.239 456.063 155.317 455.577 155.317ZM455.811 153.523C456.435 153.523 457.025 153.419 457.579 153.211C458.134 153.003 458.611 152.691 459.009 152.275C459.408 151.842 459.72 151.304 459.945 150.663C460.188 150.004 460.309 149.242 460.309 148.375V148.167C460.309 146.416 459.919 145.125 459.139 144.293C458.377 143.461 457.328 143.045 455.993 143.045C454.641 143.045 453.584 143.496 452.821 144.397C452.059 145.298 451.677 146.581 451.677 148.245V148.453C451.677 149.32 451.781 150.074 451.989 150.715C452.215 151.339 452.509 151.859 452.873 152.275C453.255 152.691 453.697 153.003 454.199 153.211C454.702 153.419 455.239 153.523 455.811 153.523Z" fill="white"/>
<path d="M472.625 155.317C471.654 155.317 470.77 155.152 469.973 154.823C469.176 154.494 468.482 154.034 467.893 153.445C467.304 152.838 466.844 152.11 466.515 151.261C466.203 150.412 466.047 149.467 466.047 148.427V148.219C466.047 147.196 466.203 146.26 466.515 145.411C466.827 144.544 467.26 143.808 467.815 143.201C468.387 142.577 469.063 142.1 469.843 141.771C470.623 141.424 471.481 141.251 472.417 141.251C473.197 141.251 473.951 141.381 474.679 141.641C475.424 141.884 476.083 142.274 476.655 142.811C477.227 143.348 477.678 144.05 478.007 144.917C478.354 145.766 478.527 146.798 478.527 148.011V148.713H468.283C468.335 150.273 468.725 151.469 469.453 152.301C470.181 153.116 471.247 153.523 472.651 153.523C474.783 153.523 475.988 152.734 476.265 151.157H478.423C478.18 152.526 477.539 153.566 476.499 154.277C475.459 154.97 474.168 155.317 472.625 155.317ZM476.317 146.971C476.213 145.567 475.814 144.562 475.121 143.955C474.445 143.348 473.544 143.045 472.417 143.045C471.308 143.045 470.398 143.4 469.687 144.111C468.994 144.804 468.552 145.758 468.361 146.971H476.317Z" fill="white"/>
<path d="M486.482 155.317C484.853 155.317 483.57 154.936 482.634 154.173C481.715 153.393 481.221 152.301 481.152 150.897H483.258C483.345 151.712 483.622 152.353 484.09 152.821C484.575 153.289 485.364 153.523 486.456 153.523C487.496 153.523 488.25 153.35 488.718 153.003C489.186 152.639 489.42 152.093 489.42 151.365C489.42 150.654 489.151 150.143 488.614 149.831C488.094 149.519 487.305 149.268 486.248 149.077C485.364 148.921 484.619 148.739 484.012 148.531C483.405 148.306 482.92 148.037 482.556 147.725C482.192 147.413 481.923 147.04 481.75 146.607C481.594 146.174 481.516 145.662 481.516 145.073C481.516 144.449 481.655 143.903 481.932 143.435C482.209 142.95 482.565 142.551 482.998 142.239C483.449 141.91 483.943 141.667 484.48 141.511C485.035 141.338 485.581 141.251 486.118 141.251C486.725 141.251 487.305 141.32 487.86 141.459C488.415 141.58 488.909 141.797 489.342 142.109C489.793 142.421 490.165 142.828 490.46 143.331C490.755 143.834 490.945 144.449 491.032 145.177H488.952C488.796 144.432 488.493 143.894 488.042 143.565C487.609 143.218 486.959 143.045 486.092 143.045C485.312 143.045 484.688 143.227 484.22 143.591C483.752 143.938 483.518 144.406 483.518 144.995C483.518 145.307 483.561 145.576 483.648 145.801C483.752 146.009 483.925 146.2 484.168 146.373C484.411 146.529 484.731 146.676 485.13 146.815C485.546 146.936 486.066 147.049 486.69 147.153C487.383 147.292 488.025 147.448 488.614 147.621C489.203 147.777 489.706 148.002 490.122 148.297C490.555 148.574 490.885 148.947 491.11 149.415C491.353 149.866 491.474 150.455 491.474 151.183C491.474 152.431 491.058 153.436 490.226 154.199C489.394 154.944 488.146 155.317 486.482 155.317Z" fill="white"/>
<path d="M495.119 141.485H497.277V155.083H495.119V141.485ZM496.159 138.651C495.76 138.651 495.422 138.512 495.145 138.235C494.867 137.958 494.729 137.62 494.729 137.221C494.729 136.822 494.867 136.484 495.145 136.207C495.422 135.93 495.76 135.791 496.159 135.791C496.557 135.791 496.895 135.93 497.173 136.207C497.45 136.484 497.589 136.822 497.589 137.221C497.589 137.62 497.45 137.958 497.173 138.235C496.895 138.512 496.557 138.651 496.159 138.651Z" fill="white"/>
<path d="M507.432 160.049C506.427 160.049 505.552 159.936 504.806 159.711C504.078 159.486 503.463 159.182 502.96 158.801C502.475 158.437 502.094 157.995 501.816 157.475C501.539 156.972 501.357 156.435 501.27 155.863H503.48C503.792 157.44 505.101 158.229 507.406 158.229C508.741 158.229 509.798 157.891 510.578 157.215C511.376 156.556 511.774 155.499 511.774 154.043V152.067C511.584 152.396 511.324 152.717 510.994 153.029C510.682 153.341 510.318 153.618 509.902 153.861C509.504 154.086 509.07 154.277 508.602 154.433C508.134 154.572 507.658 154.641 507.172 154.641C506.288 154.641 505.465 154.485 504.702 154.173C503.94 153.844 503.281 153.393 502.726 152.821C502.189 152.249 501.764 151.573 501.452 150.793C501.14 149.996 500.984 149.129 500.984 148.193V148.011C500.984 147.092 501.14 146.226 501.452 145.411C501.764 144.579 502.198 143.86 502.752 143.253C503.307 142.629 503.974 142.144 504.754 141.797C505.534 141.433 506.392 141.251 507.328 141.251C508.472 141.251 509.4 141.494 510.11 141.979C510.821 142.447 511.376 143.01 511.774 143.669V141.485H513.932V154.173C513.932 155.161 513.768 156.019 513.438 156.747C513.109 157.492 512.658 158.108 512.086 158.593C511.514 159.078 510.83 159.442 510.032 159.685C509.252 159.928 508.386 160.049 507.432 160.049ZM507.406 152.847C508.03 152.847 508.611 152.743 509.148 152.535C509.703 152.31 510.18 151.998 510.578 151.599C510.977 151.183 511.289 150.68 511.514 150.091C511.74 149.484 511.852 148.8 511.852 148.037V147.855C511.852 146.33 511.462 145.151 510.682 144.319C509.92 143.47 508.871 143.045 507.536 143.045C506.86 143.045 506.254 143.166 505.716 143.409C505.179 143.652 504.728 143.99 504.364 144.423C504 144.839 503.714 145.35 503.506 145.957C503.316 146.546 503.22 147.196 503.22 147.907V148.115C503.22 148.86 503.333 149.528 503.558 150.117C503.784 150.689 504.078 151.183 504.442 151.599C504.824 151.998 505.266 152.31 505.768 152.535C506.288 152.743 506.834 152.847 507.406 152.847Z" fill="white"/>
<path d="M518.604 141.485H520.762V143.643C521.074 143.002 521.594 142.447 522.322 141.979C523.067 141.494 524.003 141.251 525.13 141.251C525.823 141.251 526.465 141.355 527.054 141.563C527.643 141.754 528.146 142.074 528.562 142.525C528.995 142.958 529.325 143.522 529.55 144.215C529.793 144.908 529.914 145.749 529.914 146.737V155.083H527.756V146.581C527.756 145.385 527.496 144.51 526.976 143.955C526.456 143.4 525.65 143.123 524.558 143.123C524.055 143.123 523.57 143.201 523.102 143.357C522.651 143.513 522.253 143.747 521.906 144.059C521.559 144.371 521.282 144.761 521.074 145.229C520.866 145.697 520.762 146.234 520.762 146.841V155.083H518.604V141.485Z" fill="white"/>
<path d="M546.996 155.317C546.043 155.317 545.159 155.161 544.344 154.849C543.547 154.52 542.845 154.06 542.238 153.471C541.649 152.864 541.181 152.136 540.834 151.287C540.505 150.438 540.34 149.484 540.34 148.427V148.219C540.34 147.179 540.513 146.234 540.86 145.385C541.207 144.518 541.675 143.782 542.264 143.175C542.871 142.568 543.573 142.1 544.37 141.771C545.167 141.424 546.025 141.251 546.944 141.251C547.655 141.251 548.339 141.338 548.998 141.511C549.674 141.684 550.272 141.962 550.792 142.343C551.329 142.707 551.78 143.192 552.144 143.799C552.508 144.406 552.742 145.142 552.846 146.009H550.714C550.541 144.934 550.099 144.172 549.388 143.721C548.695 143.27 547.88 143.045 546.944 143.045C546.32 143.045 545.739 143.166 545.202 143.409C544.682 143.652 544.223 143.998 543.824 144.449C543.443 144.882 543.139 145.42 542.914 146.061C542.689 146.702 542.576 147.422 542.576 148.219V148.427C542.576 150.108 542.983 151.382 543.798 152.249C544.63 153.098 545.705 153.523 547.022 153.523C547.507 153.523 547.967 153.454 548.4 153.315C548.851 153.176 549.249 152.968 549.596 152.691C549.96 152.414 550.255 152.067 550.48 151.651C550.723 151.235 550.87 150.75 550.922 150.195H552.924C552.855 150.923 552.655 151.608 552.326 152.249C552.014 152.873 551.598 153.41 551.078 153.861C550.558 154.312 549.951 154.667 549.258 154.927C548.565 155.187 547.811 155.317 546.996 155.317Z" fill="white"/>
<path d="M556.487 141.485H558.645V143.929C558.853 143.548 559.087 143.201 559.347 142.889C559.624 142.56 559.936 142.282 560.283 142.057C560.629 141.814 561.037 141.624 561.505 141.485C561.973 141.346 562.51 141.268 563.117 141.251V143.279C562.441 143.314 561.825 143.4 561.271 143.539C560.716 143.678 560.239 143.912 559.841 144.241C559.459 144.57 559.165 145.012 558.957 145.567C558.749 146.104 558.645 146.789 558.645 147.621V155.083H556.487V141.485Z" fill="white"/>
<path d="M569.846 155.317C569.222 155.317 568.632 155.239 568.078 155.083C567.523 154.927 567.038 154.684 566.622 154.355C566.223 154.026 565.902 153.61 565.66 153.107C565.434 152.604 565.322 152.006 565.322 151.313C565.322 150.533 565.512 149.874 565.894 149.337C566.275 148.8 566.778 148.366 567.402 148.037C568.043 147.708 568.771 147.474 569.586 147.335C570.418 147.179 571.267 147.101 572.134 147.101H574.084V146.113C574.084 145.021 573.858 144.241 573.408 143.773C572.957 143.288 572.212 143.045 571.172 143.045C569.3 143.045 568.26 143.86 568.052 145.489H565.894C565.963 144.709 566.154 144.05 566.466 143.513C566.795 142.976 567.202 142.542 567.688 142.213C568.19 141.866 568.745 141.624 569.352 141.485C569.976 141.329 570.617 141.251 571.276 141.251C571.917 141.251 572.541 141.329 573.148 141.485C573.754 141.624 574.283 141.884 574.734 142.265C575.184 142.629 575.548 143.123 575.826 143.747C576.103 144.371 576.242 145.16 576.242 146.113V155.083H574.084V153.367C573.581 154.008 573 154.494 572.342 154.823C571.683 155.152 570.851 155.317 569.846 155.317ZM570.054 153.601C570.626 153.601 571.154 153.532 571.64 153.393C572.142 153.237 572.567 153.02 572.914 152.743C573.278 152.466 573.564 152.128 573.772 151.729C573.98 151.313 574.084 150.845 574.084 150.325V148.635H572.212C571.536 148.635 570.903 148.687 570.314 148.791C569.742 148.878 569.239 149.025 568.806 149.233C568.39 149.441 568.06 149.718 567.818 150.065C567.592 150.394 567.48 150.81 567.48 151.313C567.48 152.024 567.67 152.587 568.052 153.003C568.433 153.402 569.1 153.601 570.054 153.601Z" fill="white"/>
<path d="M581.253 143.305H579.303V141.485H581.253V139.275C581.253 137.888 581.591 136.814 582.267 136.051C582.943 135.288 583.957 134.907 585.309 134.907C585.656 134.907 585.942 134.933 586.167 134.985C586.393 135.02 586.644 135.08 586.921 135.167V136.987C586.731 136.9 586.497 136.831 586.219 136.779C585.959 136.727 585.682 136.701 585.387 136.701C584.677 136.701 584.165 136.918 583.853 137.351C583.559 137.784 583.411 138.348 583.411 139.041V141.485H586.739V143.305H583.411V155.083H581.253V143.305Z" fill="white"/>
<path d="M594.365 155.265C593.117 155.265 592.189 154.936 591.583 154.277C590.993 153.618 590.699 152.752 590.699 151.677V143.305H588.749V141.485H590.699V138.391H592.857V141.485H596.029V143.305H592.857V151.469C592.857 152.786 593.42 153.445 594.547 153.445C594.893 153.445 595.197 153.419 595.457 153.367C595.717 153.315 595.968 153.246 596.211 153.159V154.979C595.985 155.066 595.734 155.135 595.457 155.187C595.179 155.239 594.815 155.265 594.365 155.265Z" fill="white"/>
</g>
</g>
<g clip-path="url(#clip1_1_988)">
<path d="M655.5 122.702C655.5 182.189 607.27 230.418 547.783 230.418C480.436 230.418 413.128 176.58 359.25 122.702C305.372 68.8234 238.064 14.9849 170.716 14.9849C111.23 14.9849 63 63.2144 63 122.702C63 182.189 111.23 230.418 170.716 230.418C238.064 230.418 305.372 176.58 359.25 122.702C413.128 68.8234 480.436 14.9849 547.783 14.9849C607.27 14.9849 655.5 63.2144 655.5 122.702Z" stroke="white" stroke-miterlimit="10" stroke-linecap="square"/>
</g>
<defs>
<linearGradient id="paint0_linear_1_988" x1="140" y1="129.985" x2="606" y2="123.985" gradientUnits="userSpaceOnUse">
<stop stop-color="white"/>
<stop offset="1" stop-color="white" stop-opacity="0"/>
</linearGradient>
<clipPath id="clip0_1_988">
<rect width="594" height="217" fill="white" transform="translate(63 14.9849)"/>
</clipPath>
<clipPath id="clip1_1_988">
<rect width="720" height="217" fill="white" transform="translate(0 14.9849)"/>
</clipPath>
</defs>
</svg>
