<svg width="52" height="50" viewBox="0 0 52 50" fill="none" xmlns="http://www.w3.org/2000/svg">
<g id="logo.svg">
<path id="Vector" d="M26.0013 48.5547C38.972 48.5547 49.4869 38.0398 49.4869 25.0691C49.4869 12.0984 38.972 1.5835 26.0013 1.5835C13.0305 1.5835 2.51569 12.0984 2.51569 25.0691C2.51569 38.0398 13.0305 48.5547 26.0013 48.5547Z" stroke="white" stroke-width="1.69968"/>
<path id="Vector_2" d="M14.631 5.00775C14.9568 4.69975 15.6513 4.5001 16.9667 4.75219C18.2424 4.99665 19.8751 5.62892 21.7668 6.63385C25.5392 8.63786 30.164 12.028 34.7242 16.338C39.2844 20.6481 42.8713 25.0191 44.9916 28.5846C46.0549 30.3725 46.7238 31.9157 46.9825 33.1214C47.2492 34.3647 47.0379 35.021 46.7121 35.329C46.3862 35.637 45.6918 35.8367 44.3763 35.5846C43.1006 35.3401 41.4679 34.7078 39.5762 33.7029C35.8038 31.6989 31.1791 28.3088 26.6189 23.9987C22.0587 19.6887 18.4718 15.3176 16.3514 11.7522C15.2882 9.96423 14.6192 8.42107 14.3606 7.21539C14.0939 5.97208 14.3051 5.31574 14.631 5.00775Z" stroke="white" stroke-width="1.69968"/>
<path id="Vector_3" d="M38.2486 4.99762C38.5668 5.29837 38.776 5.95693 38.4865 7.22828C38.2067 8.45696 37.5056 10.0322 36.4022 11.859C34.2017 15.5019 30.5036 19.9784 25.8209 24.4042C21.1382 28.8301 16.4018 32.3253 12.5475 34.4051C10.6147 35.448 8.94802 36.1106 7.64803 36.3751C6.3029 36.6487 5.60612 36.4509 5.28791 36.1502C4.9697 35.8494 4.76045 35.1909 5.04995 33.9195C5.32973 32.6908 6.03086 31.1156 7.13431 29.2888C9.3348 25.6459 13.0328 21.1694 17.7156 16.7435C22.3983 12.3177 27.1346 8.82251 30.989 6.74274C32.9218 5.69982 34.5884 5.03715 35.8884 4.77271C37.2336 4.4991 37.9304 4.69687 38.2486 4.99762Z" stroke="white" stroke-width="1.69968"/>
</g>
</svg>
